<?xml version="1.0" standalone="no"?>
<!DOCTYPE svg PUBLIC "-//W3C//DTD SVG 20010904//EN"
 "http://www.w3.org/TR/2001/REC-SVG-20010904/DTD/svg10.dtd">
<svg version="1.0" xmlns="http://www.w3.org/2000/svg"
 width="384.000000pt" height="384.000000pt" viewBox="0 0 384.000000 384.000000"
 preserveAspectRatio="xMidYMid meet">
<metadata>
Created by potrace 1.14, written by Peter Selinger 2001-2017
</metadata>
<g transform="translate(0.000000,384.000000) scale(0.100000,-0.100000)"
fill="#000000" stroke="none">
<path d="M1625 3825 c-570 -92 -1049 -407 -1347 -887 -113 -182 -195 -391
-245 -623 -26 -124 -28 -143 -28 -395 0 -250 2 -272 27 -391 83 -383 254 -705
518 -970 272 -273 587 -443 975 -526 124 -26 143 -28 395 -28 250 0 272 2 391
27 383 83 705 254 970 518 273 272 443 587 526 975 26 124 28 143 28 395 0
250 -2 272 -27 391 -166 769 -726 1332 -1488 1495 -111 23 -151 27 -365 30
-176 2 -264 -1 -330 -11z m260 -982 c96 -24 212 -90 286 -163 181 -179 241
-437 158 -683 -31 -91 -34 -94 -47 -37 -29 127 -127 283 -230 365 -68 54 -174
108 -257 129 -76 20 -233 21 -310 1 -153 -39 -306 -146 -391 -273 -21 -31 -42
-61 -47 -67 -15 -16 0 172 19 240 59 219 232 404 444 475 114 38 255 43 375
13z m622 -379 c144 -84 263 -244 309 -414 28 -104 24 -274 -9 -375 -67 -206
-224 -366 -427 -436 -54 -19 -86 -23 -195 -23 -122 0 -135 2 -211 31 -45 17
-105 46 -135 65 -60 39 -149 115 -149 128 0 4 44 6 98 3 128 -7 220 13 342 73
79 39 110 62 180 133 138 139 200 287 200 481 0 136 -39 274 -102 363 l-20 28
38 -16 c22 -9 58 -27 81 -41z m-973 -211 c-212 -260 -202 -641 24 -903 98
-114 253 -193 420 -214 l94 -11 -44 -31 c-119 -86 -238 -124 -386 -124 -117 0
-164 11 -281 67 -79 38 -108 59 -176 127 -92 92 -142 178 -175 300 -30 107
-25 298 9 396 57 165 180 309 325 381 80 39 164 66 214 68 20 1 18 -4 -24 -56z"/>
</g>
</svg>
