<svg width="55" height="55" viewBox="0 0 55 55" fill="none" xmlns="http://www.w3.org/2000/svg">
<g clip-path="url(#clip0_0_3)">
<path d="M33.5217 27.7973C32.6605 22.4552 27.8772 18.6495 22.5459 18.9681C22.3025 18.9813 22.0591 19.0043 21.8157 19.0371C18.1966 19.5074 15.2661 21.786 13.8079 24.8536C13.6127 23.466 13.7024 22.0544 14.0717 20.7009C14.441 19.3475 15.0825 18.0792 15.9589 16.9701C19.5535 12.3837 26.1738 11.434 30.7465 14.848C31.4905 15.4027 32.1524 16.0549 32.7135 16.7864C35.1063 19.9073 35.4529 24.2137 33.5217 27.7973Z" fill="#00FF47" fill-opacity="0.84"/>
<path d="M30.2645 39.5138C28.7144 40.9323 26.748 41.8413 24.6414 42.1133C18.9353 42.8556 13.6767 38.8166 12.8959 33.0942C12.6169 31.0869 12.9333 29.0436 13.8078 27.2065C15.2659 24.139 18.1965 21.8605 21.8157 21.3902C22.0591 21.3576 22.3025 21.3346 22.5459 21.3212C20.1058 23.5399 18.7664 26.8921 19.2484 30.4262C19.4987 32.2938 20.2532 34.0628 21.4344 35.5523C23.5081 38.1598 26.7679 39.7236 30.2645 39.5138Z" fill="#00FF47" fill-opacity="0.84"/>
<path d="M33.1861 38.3758C32.9431 38.4078 32.6996 38.4317 32.4559 38.4442C28.9596 38.654 25.6998 37.0903 23.6264 34.4823C27.5915 35.4536 32.0046 34.0609 34.7069 30.6144C35.0864 30.1318 35.4231 29.6186 35.7135 29.0803C37.6452 25.497 37.2988 21.1902 34.9047 18.069C38.6312 19.2735 41.538 22.5315 42.1037 26.6713C42.8844 32.394 38.8924 37.6357 33.1861 38.3758Z" fill="#00FF47" fill-opacity="0.84"/>
</g>
<defs>
<clipPath id="clip0_0_3">
<rect width="29.4025" height="29.4025" fill="white" transform="translate(12.7987 12.7987)"/>
</clipPath>
</defs>
</svg>
